<svg width="19" height="20" viewBox="0 0 19 20" fill="none" xmlns="http://www.w3.org/2000/svg">
<path d="M5.4585 12C5.17516 12 4.9375 11.904 4.7455 11.712C4.55416 11.5207 4.4585 11.2833 4.4585 11C4.4585 10.7167 4.55416 10.479 4.7455 10.287C4.9375 10.0957 5.17516 10 5.4585 10C5.74183 10 5.9795 10.0957 6.1715 10.287C6.36283 10.479 6.4585 10.7167 6.4585 11C6.4585 11.2833 6.36283 11.5207 6.1715 11.712C5.9795 11.904 5.74183 12 5.4585 12ZM9.4585 12C9.17516 12 8.93783 11.904 8.7465 11.712C8.5545 11.5207 8.4585 11.2833 8.4585 11C8.4585 10.7167 8.5545 10.479 8.7465 10.287C8.93783 10.0957 9.17516 10 9.4585 10C9.74183 10 9.9795 10.0957 10.1715 10.287C10.3628 10.479 10.4585 10.7167 10.4585 11C10.4585 11.2833 10.3628 11.5207 10.1715 11.712C9.9795 11.904 9.74183 12 9.4585 12ZM13.4585 12C13.1752 12 12.9378 11.904 12.7465 11.712C12.5545 11.5207 12.4585 11.2833 12.4585 11C12.4585 10.7167 12.5545 10.479 12.7465 10.287C12.9378 10.0957 13.1752 10 13.4585 10C13.7418 10 13.9792 10.0957 14.1705 10.287C14.3625 10.479 14.4585 10.7167 14.4585 11C14.4585 11.2833 14.3625 11.5207 14.1705 11.712C13.9792 11.904 13.7418 12 13.4585 12ZM2.4585 20C1.9085 20 1.4375 19.8043 1.0455 19.413C0.654163 19.021 0.458496 18.55 0.458496 18V4C0.458496 3.45 0.654163 2.97933 1.0455 2.588C1.4375 2.196 1.9085 2 2.4585 2H3.4585V0H5.4585V2H13.4585V0H15.4585V2H16.4585C17.0085 2 17.4795 2.196 17.8715 2.588C18.2628 2.97933 18.4585 3.45 18.4585 4V18C18.4585 18.55 18.2628 19.021 17.8715 19.413C17.4795 19.8043 17.0085 20 16.4585 20H2.4585ZM2.4585 18H16.4585V8H2.4585V18Z" fill="#2C6FF5"/>
</svg>
