<svg width="25" height="24" viewBox="0 0 25 24" fill="none" xmlns="http://www.w3.org/2000/svg">
<path d="M12.4469 2.98923C12.2481 2.99233 12.0587 3.07419 11.9203 3.21683C11.7819 3.35947 11.7057 3.55122 11.7086 3.74997V14.4394L9.98885 12.7197C9.91894 12.6477 9.83529 12.5905 9.74287 12.5514C9.65044 12.5123 9.55111 12.4922 9.45076 12.4922C9.3015 12.4922 9.15564 12.5368 9.03185 12.6202C8.90807 12.7036 8.81197 12.822 8.75587 12.9603C8.69977 13.0986 8.68621 13.2505 8.71692 13.3966C8.74764 13.5427 8.82124 13.6762 8.9283 13.7802L11.9283 16.7802C12.069 16.9208 12.2597 16.9998 12.4586 16.9998C12.6575 16.9998 12.8482 16.9208 12.9888 16.7802L15.9888 13.7802C16.0608 13.7111 16.1183 13.6284 16.1579 13.5368C16.1975 13.4452 16.2184 13.3466 16.2194 13.2468C16.2204 13.147 16.2015 13.0481 16.1638 12.9557C16.1261 12.8633 16.0703 12.7794 15.9997 12.7088C15.9292 12.6382 15.8453 12.5825 15.7529 12.5448C15.6605 12.507 15.5615 12.4881 15.4617 12.4892C15.362 12.4902 15.2634 12.5111 15.1718 12.5507C15.0802 12.5903 14.9974 12.6477 14.9283 12.7197L13.2086 14.4394V3.74997C13.21 3.64959 13.1913 3.54994 13.1535 3.45692C13.1157 3.36391 13.0597 3.27943 12.9886 3.20849C12.9176 3.13754 12.833 3.08158 12.74 3.04392C12.6469 3.00626 12.5472 2.98766 12.4469 2.98923ZM4.19685 15.4892C3.99811 15.4923 3.80873 15.5742 3.6703 15.7168C3.53187 15.8595 3.45572 16.0512 3.45857 16.25V18.25C3.45857 19.7599 4.69869 21 6.20857 21H18.7086C20.2185 21 21.4586 19.7599 21.4586 18.25V16.25C21.46 16.1506 21.4416 16.0519 21.4046 15.9597C21.3675 15.8675 21.3125 15.7835 21.2427 15.7127C21.1729 15.642 21.0898 15.5858 20.9981 15.5474C20.9064 15.509 20.808 15.4893 20.7086 15.4893C20.6092 15.4893 20.5108 15.509 20.4191 15.5474C20.3274 15.5858 20.2442 15.642 20.1745 15.7127C20.1047 15.7835 20.0497 15.8675 20.0126 15.9597C19.9755 16.0519 19.9572 16.1506 19.9586 16.25V18.25C19.9586 18.9491 19.4077 19.5 18.7086 19.5H6.20857C5.50946 19.5 4.95857 18.9491 4.95857 18.25V16.25C4.96001 16.1496 4.94129 16.0499 4.9035 15.9569C4.86572 15.8639 4.80965 15.7794 4.73862 15.7085C4.66758 15.6375 4.58303 15.5816 4.48997 15.5439C4.39691 15.5063 4.29724 15.4877 4.19685 15.4892Z" fill="#6B7280"/>
</svg>
